<svg id="visual" viewBox="0 0 900 600" width="900" height="600" xmlns="http://www.w3.org/2000/svg" xmlns:xlink="http://www.w3.org/1999/xlink" version="1.1"><rect x="0" y="0" width="900" height="600" fill="#001220"></rect><path d="M0 415L21.5 410.3C43 405.7 86 396.3 128.8 397C171.7 397.7 214.3 408.3 257.2 405.3C300 402.3 343 385.7 385.8 374.3C428.7 363 471.3 357 514.2 356.5C557 356 600 361 642.8 371.5C685.7 382 728.3 398 771.2 402.8C814 407.7 857 401.3 878.5 398.2L900 395L900 601L878.5 601C857 601 814 601 771.2 601C728.3 601 685.7 601 642.8 601C600 601 557 601 514.2 601C471.3 601 428.7 601 385.8 601C343 601 300 601 257.2 601C214.3 601 171.7 601 128.8 601C86 601 43 601 21.5 601L0 601Z" fill="#c62368"></path><path d="M0 472L21.5 460.3C43 448.7 86 425.3 128.8 415C171.7 404.7 214.3 407.3 257.2 419.3C300 431.3 343 452.7 385.8 456.3C428.7 460 471.3 446 514.2 437.2C557 428.3 600 424.7 642.8 419.3C685.7 414 728.3 407 771.2 406.8C814 406.7 857 413.3 878.5 416.7L900 420L900 601L878.5 601C857 601 814 601 771.2 601C728.3 601 685.7 601 642.8 601C600 601 557 601 514.2 601C471.3 601 428.7 601 385.8 601C343 601 300 601 257.2 601C214.3 601 171.7 601 128.8 601C86 601 43 601 21.5 601L0 601Z" fill="#e95667"></path><path d="M0 468L21.5 469.2C43 470.3 86 472.7 128.8 471.8C171.7 471 214.3 467 257.2 472.5C300 478 343 493 385.8 498.7C428.7 504.3 471.3 500.7 514.2 500.5C557 500.3 600 503.7 642.8 497.2C685.7 490.7 728.3 474.3 771.2 474.8C814 475.3 857 492.7 878.5 501.3L900 510L900 601L878.5 601C857 601 814 601 771.2 601C728.3 601 685.7 601 642.8 601C600 601 557 601 514.2 601C471.3 601 428.7 601 385.8 601C343 601 300 601 257.2 601C214.3 601 171.7 601 128.8 601C86 601 43 601 21.5 601L0 601Z" fill="#fa7268"></path><path d="M0 525L21.5 518.5C43 512 86 499 128.8 498.7C171.7 498.3 214.3 510.7 257.2 512C300 513.3 343 503.7 385.8 499.5C428.7 495.3 471.3 496.7 514.2 503.7C557 510.7 600 523.3 642.8 529.2C685.7 535 728.3 534 771.2 532.5C814 531 857 529 878.5 528L900 527L900 601L878.5 601C857 601 814 601 771.2 601C728.3 601 685.7 601 642.8 601C600 601 557 601 514.2 601C471.3 601 428.7 601 385.8 601C343 601 300 601 257.2 601C214.3 601 171.7 601 128.8 601C86 601 43 601 21.5 601L0 601Z" fill="#e95667"></path><path d="M0 572L21.5 570.3C43 568.7 86 565.3 128.8 561.3C171.7 557.3 214.3 552.7 257.2 554.3C300 556 343 564 385.8 560.8C428.7 557.7 471.3 543.3 514.2 538.8C557 534.3 600 539.7 642.8 545.7C685.7 551.7 728.3 558.3 771.2 560.2C814 562 857 559 878.5 557.5L900 556L900 601L878.5 601C857 601 814 601 771.2 601C728.3 601 685.7 601 642.8 601C600 601 557 601 514.2 601C471.3 601 428.7 601 385.8 601C343 601 300 601 257.2 601C214.3 601 171.7 601 128.8 601C86 601 43 601 21.5 601L0 601Z" fill="#c62368"></path></svg>