<svg id="visual" viewBox="0 0 900 600" width="900" height="600" xmlns="http://www.w3.org/2000/svg" xmlns:xlink="http://www.w3.org/1999/xlink" version="1.1"><g stroke-width="1" stroke-linejoin="bevel"><path d="M468 322L370 285L383 366Z" fill="#205a7a" stroke="#205a7a"></path><path d="M370 285L333 385L383 366Z" fill="#0c2435" stroke="#0c2435"></path><path d="M370 285L318 274L333 385Z" fill="#246688" stroke="#246688"></path><path d="M370 177L335 218L370 285Z" fill="#081a28" stroke="#081a28"></path><path d="M370 285L335 218L318 274Z" fill="#1d4e6b" stroke="#1d4e6b"></path><path d="M471 498L506 423L383 366Z" fill="#277297" stroke="#277297"></path><path d="M383 366L506 423L468 322Z" fill="#1d4e6b" stroke="#1d4e6b"></path><path d="M512 190L370 177L370 285Z" fill="#205a7a" stroke="#205a7a"></path><path d="M629 297L512 190L468 322Z" fill="#19435d" stroke="#19435d"></path><path d="M468 322L512 190L370 285Z" fill="#112e42" stroke="#112e42"></path><path d="M335 218L237 274L318 274Z" fill="#15384f" stroke="#15384f"></path><path d="M318 274L237 274L333 385Z" fill="#0c2435" stroke="#0c2435"></path><path d="M185 190L237 274L335 218Z" fill="#0c2435" stroke="#0c2435"></path><path d="M393 520L471 498L383 366Z" fill="#297ea6" stroke="#297ea6"></path><path d="M512 190L407 127L370 177Z" fill="#246688" stroke="#246688"></path><path d="M370 177L301 116L335 218Z" fill="#297ea6" stroke="#297ea6"></path><path d="M333 385L393 520L383 366Z" fill="#297ea6" stroke="#297ea6"></path><path d="M315 509L393 520L333 385Z" fill="#112e42" stroke="#112e42"></path><path d="M600 465L611 398L506 423Z" fill="#0c2435" stroke="#0c2435"></path><path d="M506 423L611 398L468 322Z" fill="#0c2435" stroke="#0c2435"></path><path d="M236 489L315 509L333 385Z" fill="#1d4e6b" stroke="#1d4e6b"></path><path d="M611 398L629 297L468 322Z" fill="#15384f" stroke="#15384f"></path><path d="M613 175L513 126L512 190Z" fill="#112e42" stroke="#112e42"></path><path d="M512 190L513 126L407 127Z" fill="#00101c" stroke="#00101c"></path><path d="M393 0L301 116L407 127Z" fill="#1d4e6b" stroke="#1d4e6b"></path><path d="M407 127L301 116L370 177Z" fill="#19435d" stroke="#19435d"></path><path d="M471 498L600 465L506 423Z" fill="#0c2435" stroke="#0c2435"></path><path d="M611 398L732 293L629 297Z" fill="#1d4e6b" stroke="#1d4e6b"></path><path d="M590 600L600 465L471 498Z" fill="#112e42" stroke="#112e42"></path><path d="M89 292L177 385L237 274Z" fill="#15384f" stroke="#15384f"></path><path d="M237 274L177 385L333 385Z" fill="#081a28" stroke="#081a28"></path><path d="M177 385L236 489L333 385Z" fill="#205a7a" stroke="#205a7a"></path><path d="M629 297L613 175L512 190Z" fill="#112e42" stroke="#112e42"></path><path d="M301 116L185 190L335 218Z" fill="#112e42" stroke="#112e42"></path><path d="M301 116L210 121L185 190Z" fill="#205a7a" stroke="#205a7a"></path><path d="M335 600L393 520L315 509Z" fill="#112e42" stroke="#112e42"></path><path d="M335 600L366 600L393 520Z" fill="#081a28" stroke="#081a28"></path><path d="M393 520L469 600L471 498Z" fill="#1d4e6b" stroke="#1d4e6b"></path><path d="M366 600L469 600L393 520Z" fill="#19435d" stroke="#19435d"></path><path d="M723 214L633 132L613 175Z" fill="#246688" stroke="#246688"></path><path d="M613 175L633 132L513 126Z" fill="#1d4e6b" stroke="#1d4e6b"></path><path d="M196 600L335 600L315 509Z" fill="#246688" stroke="#246688"></path><path d="M121 82L122 214L185 190Z" fill="#00101c" stroke="#00101c"></path><path d="M185 190L122 214L237 274Z" fill="#205a7a" stroke="#205a7a"></path><path d="M738 437L732 293L611 398Z" fill="#00101c" stroke="#00101c"></path><path d="M629 297L723 214L613 175Z" fill="#112e42" stroke="#112e42"></path><path d="M517 0L407 127L513 126Z" fill="#246688" stroke="#246688"></path><path d="M517 0L393 0L407 127Z" fill="#246688" stroke="#246688"></path><path d="M301 116L299 0L210 121Z" fill="#112e42" stroke="#112e42"></path><path d="M122 214L89 292L237 274Z" fill="#205a7a" stroke="#205a7a"></path><path d="M177 385L100 424L236 489Z" fill="#297ea6" stroke="#297ea6"></path><path d="M732 293L723 214L629 297Z" fill="#297ea6" stroke="#297ea6"></path><path d="M89 292L100 424L177 385Z" fill="#246688" stroke="#246688"></path><path d="M236 489L196 600L315 509Z" fill="#1d4e6b" stroke="#1d4e6b"></path><path d="M469 600L590 600L471 498Z" fill="#19435d" stroke="#19435d"></path><path d="M600 465L738 437L611 398Z" fill="#297ea6" stroke="#297ea6"></path><path d="M633 132L517 0L513 126Z" fill="#19435d" stroke="#19435d"></path><path d="M638 0L517 0L633 132Z" fill="#205a7a" stroke="#205a7a"></path><path d="M393 0L299 0L301 116Z" fill="#297ea6" stroke="#297ea6"></path><path d="M210 121L121 82L185 190Z" fill="#00101c" stroke="#00101c"></path><path d="M713 522L738 437L600 465Z" fill="#1d4e6b" stroke="#1d4e6b"></path><path d="M92 503L196 600L236 489Z" fill="#246688" stroke="#246688"></path><path d="M723 214L681 82L633 132Z" fill="#1d4e6b" stroke="#1d4e6b"></path><path d="M590 600L713 522L600 465Z" fill="#1d4e6b" stroke="#1d4e6b"></path><path d="M0 405L92 503L100 424Z" fill="#1d4e6b" stroke="#1d4e6b"></path><path d="M100 424L92 503L236 489Z" fill="#15384f" stroke="#15384f"></path><path d="M169 0L121 82L210 121Z" fill="#246688" stroke="#246688"></path><path d="M0 229L0 315L89 292Z" fill="#246688" stroke="#246688"></path><path d="M816 397L801 297L732 293Z" fill="#205a7a" stroke="#205a7a"></path><path d="M732 293L819 226L723 214Z" fill="#0c2435" stroke="#0c2435"></path><path d="M723 214L768 98L681 82Z" fill="#246688" stroke="#246688"></path><path d="M816 397L732 293L738 437Z" fill="#297ea6" stroke="#297ea6"></path><path d="M670 0L638 0L681 82Z" fill="#081a28" stroke="#081a28"></path><path d="M681 82L638 0L633 132Z" fill="#19435d" stroke="#19435d"></path><path d="M590 600L698 600L713 522Z" fill="#00101c" stroke="#00101c"></path><path d="M804 471L816 397L738 437Z" fill="#00101c" stroke="#00101c"></path><path d="M299 0L169 0L210 121Z" fill="#19435d" stroke="#19435d"></path><path d="M768 98L670 0L681 82Z" fill="#081a28" stroke="#081a28"></path><path d="M804 471L738 437L713 522Z" fill="#205a7a" stroke="#205a7a"></path><path d="M0 229L89 292L122 214Z" fill="#19435d" stroke="#19435d"></path><path d="M89 292L0 405L100 424Z" fill="#246688" stroke="#246688"></path><path d="M900 336L819 226L801 297Z" fill="#0c2435" stroke="#0c2435"></path><path d="M801 297L819 226L732 293Z" fill="#205a7a" stroke="#205a7a"></path><path d="M819 226L768 98L723 214Z" fill="#19435d" stroke="#19435d"></path><path d="M819 600L804 471L713 522Z" fill="#081a28" stroke="#081a28"></path><path d="M0 315L0 405L89 292Z" fill="#205a7a" stroke="#205a7a"></path><path d="M0 137L0 229L122 214Z" fill="#205a7a" stroke="#205a7a"></path><path d="M0 137L122 214L121 82Z" fill="#112e42" stroke="#112e42"></path><path d="M92 503L72 600L196 600Z" fill="#277297" stroke="#277297"></path><path d="M0 532L72 600L92 503Z" fill="#19435d" stroke="#19435d"></path><path d="M169 0L100 0L121 82Z" fill="#277297" stroke="#277297"></path><path d="M0 0L0 137L121 82Z" fill="#081a28" stroke="#081a28"></path><path d="M0 405L0 532L92 503Z" fill="#081a28" stroke="#081a28"></path><path d="M816 397L900 336L801 297Z" fill="#081a28" stroke="#081a28"></path><path d="M819 226L900 177L768 98Z" fill="#1d4e6b" stroke="#1d4e6b"></path><path d="M900 362L900 336L816 397Z" fill="#1d4e6b" stroke="#1d4e6b"></path><path d="M900 473L900 362L816 397Z" fill="#277297" stroke="#277297"></path><path d="M900 473L816 397L804 471Z" fill="#246688" stroke="#246688"></path><path d="M698 600L819 600L713 522Z" fill="#1d4e6b" stroke="#1d4e6b"></path><path d="M0 532L0 600L72 600Z" fill="#112e42" stroke="#112e42"></path><path d="M900 336L900 177L819 226Z" fill="#205a7a" stroke="#205a7a"></path><path d="M768 98L814 0L670 0Z" fill="#15384f" stroke="#15384f"></path><path d="M819 600L900 473L804 471Z" fill="#1d4e6b" stroke="#1d4e6b"></path><path d="M900 92L814 0L768 98Z" fill="#15384f" stroke="#15384f"></path><path d="M100 0L0 0L121 82Z" fill="#205a7a" stroke="#205a7a"></path><path d="M900 177L900 92L768 98Z" fill="#19435d" stroke="#19435d"></path><path d="M819 600L900 600L900 473Z" fill="#205a7a" stroke="#205a7a"></path><path d="M900 92L900 0L814 0Z" fill="#297ea6" stroke="#297ea6"></path></g></svg>