<svg id="visual" viewBox="0 0 900 600" width="900" height="600" xmlns="http://www.w3.org/2000/svg" xmlns:xlink="http://www.w3.org/1999/xlink" version="1.1"><rect x="0" y="0" width="900" height="600" fill="#002233"></rect><path d="M0 401L21.5 401.8C43 402.7 86 404.3 128.8 422.2C171.7 440 214.3 474 257.2 480.7C300 487.3 343 466.7 385.8 453.3C428.7 440 471.3 434 514.2 430.8C557 427.7 600 427.3 642.8 430.3C685.7 433.3 728.3 439.7 771.2 432.3C814 425 857 404 878.5 393.5L900 383L900 601L878.5 601C857 601 814 601 771.2 601C728.3 601 685.7 601 642.8 601C600 601 557 601 514.2 601C471.3 601 428.7 601 385.8 601C343 601 300 601 257.2 601C214.3 601 171.7 601 128.8 601C86 601 43 601 21.5 601L0 601Z" fill="#0066FF" stroke-linecap="round" stroke-linejoin="miter"></path></svg>